<?xml version="1.0" encoding="utf-8"?>
<!-- Generator: Adobe Illustrator 25.4.1, SVG Export Plug-In . SVG Version: 6.00 Build 0)  -->
<svg version="1.1" id="Layer_1" xmlns="http://www.w3.org/2000/svg" xmlns:xlink="http://www.w3.org/1999/xlink" x="0px" y="0px"
	 viewBox="0 0 800 300" style="enable-background:new 0 0 800 300;" xml:space="preserve">
<style type="text/css">
	.st0{fill:#B2E3FA;}
	.st1{fill:#27B7EA;}
	.st2{fill:#53C9F4;}
</style>
<rect x="0.57" y="23.05" class="st0" width="799.49" height="236.63"/>
<path class="st1" d="M799.74,230.52c0.07,23.14,0.13,46.28,0.2,69.42c-40.04,0.02-80.09,0.06-120.13,0.06
	c-222.09,0.01-444.19,0-666.28,0c-4.37,0-8.75-0.04-13.12-0.06c0.07-26.59,0.14-53.19,0.2-79.78c4.84-0.21,6.1,1.37,7.94,2.57
	c24.62,16,61.22,24.15,107.72,25.93c37.61,1.44,72-2.09,103.52-10.24c5.64-1.46,11.38-2.86,16.8-4.43
	c36.22-10.56,75.2-10.94,115.9-4.98c26.6,3.89,51.08,9.57,76.51,14.44c12.45,2.39,25.32,4.27,38.41,6.04
	c32.36,4.38,62.27,1.78,91.38-4.28c14.31-2.98,28.31-6.18,42.03-9.54c30.44-7.46,62.9-9.66,97.82-6.71
	c10.85,0.92,21.74,1.79,32.64,2.63c19.92,1.53,39.46,1.12,58.9-1.04C793.28,230.18,796.54,229.49,799.74,230.52z"/>
<path class="st2" d="M799.74,232.12c-33.27,6.39-66.46,3.54-99.54-0.34c-35.87-4.21-68.78-1.18-100,8.52
	c-18.41,5.71-37.29,11.13-57.34,15.44c-31.77,6.83-62.85,4.59-93.63-1.55c-25.59-5.11-49.47-11.98-74.32-17.86
	c-14.84-3.51-30.03-6.72-46.2-8.21c-29.56-2.74-57.93-1.66-83.75,7.19c-23.69,8.12-47.45,16.22-76.57,19.22
	c-52.03,5.37-99.03,0.63-139.36-16.94c-9.19-4-16.63-9.06-22.64-14.49c-1.58-1.43-2.32-3.18-5.77-3.94c-0.05-8-0.1-16.01-0.14-24.01
	c9.34-2.99,19.18-5.38,30.17-6.56c13.86-1.48,22.32,0.92,25.9,7.52c0.35,0.64,0.33,1.33,0.68,1.97c4.8,8.79,9.84,9.77,25.16,4.89
	c15.78-5.02,21.86-4.02,30.54,4.36c3.61,3.49,6.86,7.27,14.01,9.58c11.96,3.87,25.51,2.33,40.13-3.78
	c15.47-6.47,28.45-14.12,42.29-21.32c22.65-11.79,45.12-11.9,69.63-0.25c5.07,2.41,10.32,4.8,16.1,6.76
	c11.56,3.91,24.05,4.84,37.03,1.63c2.99-0.74,6.19-1.49,8.52-2.63c20.66-10.08,41.08-7.42,62.5-0.41
	c13.13,4.3,27.47,8.14,44.22,4.83c5.55-1.1,10.82-2.7,15.71-4.42c15.74-5.54,36.67-5.27,45.3,5.73c2.04,2.6,5.53,4.93,9.72,6.92
	c9.35,4.42,20.2,3.85,27-1.56c1.93-1.54,3-3.33,4.64-4.97c4.47-4.46,9.75-8.13,21.39-8.56c10.45-0.39,15.72-3.87,16.9-8.99
	c1.03-4.47,4.27-8.3,12.93-10.56c14.79-3.87,25.53-2.64,35.9,4.09c4.28,2.78,8.2,5.65,11.85,8.65c7.85,6.45,19.58,8.65,34.26,7.06
	c14.66-1.59,25.94-6.14,37.59-10.28c25.15-8.93,51.43-10.45,79.44-3.74C799.89,198.12,799.81,215.12,799.74,232.12z"/>
<path class="st2" d="M799.42,87.3C799.42,87.3,799.41,87.3,799.42,87.3c-33.25,7.23-66.42,4-99.48-0.4
	c-35.87-4.77-68.78-1.33-100,9.65c-18.41,6.47-37.29,12.61-57.34,17.49c-31.77,7.73-62.85,5.2-93.63-1.76
	c-25.59-5.78-19.05,19.24-43.9,12.58c-14.84-3.97-51.27-9.35-67.44-11.05c-29.56-3.1-51.5-19.91-77.33-9.88
	c-23.69,9.2-63.05,5.34-92.18,8.74c-52.03,6.08-99.03,0.71-139.36-19.19C19.57,88.96,0.22,112.82,0,92.02
	c-0.09-8.8,0.25-37.81,0.2-46.6c0,0,0,0,0,0c9.34-3.39,63.63-28.64,78.96-34.16c15.78-5.68,36.67-14.73,45.35-5.23
	c3.61,3.95,30.65-6.75,37.79-4.14c11.96,4.38,19.1,13.6,33.72,6.67c15.47-7.33,17.79,2.13,33.72,0C248.89,6,248.46-2.59,275.67,1.47
	c5.07,2.73,52.94,1.18,58.72,3.39c11.56,4.43,363.81,8.16,386.05,15.7c0,0,66.65,5.38,79.61,2.49L799.42,87.3z"/>
<path class="st1" d="M799.74,67.09c0.07-22.34,0.13-44.69,0.2-67.03C759.89,0.04,719.85,0,679.8,0C457.71,0,235.62,0,13.52,0
	C9.15,0,4.78,0.04,0.4,0.06c0.07,25.68,0.14,51.36,0.2,77.04c4.84,0.21,6.1-1.32,7.94-2.48c24.62-15.45,60.73-19.93,107.24-21.65
	c37.61-1.39,72.48-1.36,104,6.5c5.64,1.41,11.38,2.76,16.8,4.28c36.22,10.19,62.06-1.55,103.62-1.27c41.23,0.28,63.52,5.1,88.95,0.4
	c12.45-2.3,53.19-12.96,66.28-14.67c32.36-4.23,34.23-1.14,63.34,4.71c14.31,2.88,28.31,5.97,42.03,9.21
	c30.44,7.2,62.9,9.33,97.82,6.48c10.85-0.89,21.74-1.73,32.64-2.54c19.92-1.48,39.46-1.08,58.9,1.01
	C793.28,67.42,796.54,68.09,799.74,67.09z"/>
</svg>
